Coordinates
version=1
nRows=20
nColumns=30
inDegrees=yes

Units are S.I. units (second, meters, Newtons, ...)
Angles are in degrees.

endheader
time	floatyaw	floatroll	floatpitch	floatx	floaty	floatz	pro_sup_l	deviation_l	flexion_l	cmc_flexion_l	cmc_abduction_l	mp_flexion_l	ip_flexion_l	2mcp_flexion_l	2mcp_abduction_l	2pm_flexion_l	2md_flexion_l	3mcp_flexion_l	3mcp_abduction_l	3pm_flexion_l	3md_flexion_l	4mcp_flexion_l	4mcp_abduction_l	4pm_flexion_l	4md_flexion_l	5mcp_flexion_l	5mcp_abduction_l	5pm_flexion_l	5md_flexion_l
-0.495000	-1.782892	-2.032873	94.941017	0.008542	-0.260128	0.032858	88.642053	6.177979	3.491518	17.794962	6.596907	-15.384976	-21.672375	24.316383	6.701556	27.521947	18.237035	13.246699	4.651135	30.402200	22.008034	0.801517	-3.332920	48.377022	32.453883	-11.927025	-9.323371	50.743631	40.361712
-0.485000	-1.782892	-2.032873	94.941017	0.011284	-0.258675	0.036170	88.717955	6.769237	3.834877	17.050704	7.278507	-15.194402	-20.959819	25.193372	6.889101	26.937765	17.962223	13.964113	4.668057	29.913166	21.969659	1.428269	-3.275893	47.853007	32.299666	-11.478986	-9.530022	50.188176	40.061344
-0.475000	-1.782892	-2.032873	94.941017	0.014356	-0.257034	0.039818	88.754579	7.337876	4.223038	16.266199	8.040616	-15.082415	-20.354131	26.205739	7.055643	26.242696	17.632401	14.722103	4.691734	29.358046	21.895513	1.982151	-3.245806	47.247231	32.144099	-10.779690	-9.649460	49.377212	39.645599
-0.465000	-1.782892	-2.032873	94.941017	0.017774	-0.255261	0.043736	88.716419	7.929020	4.657449	15.402336	8.769356	-15.030370	-19.828755	27.339371	7.184053	25.428668	17.228704	15.530389	4.725756	28.732279	21.784163	2.448463	-3.234381	46.582041	32.014641	-9.721338	-9.656670	48.223474	39.022428
-0.455000	-1.782892	-2.032873	94.941017	0.021540	-0.253446	0.047862	88.607449	8.589225	5.114962	14.451094	9.383129	-15.005492	-19.348359	28.539828	7.273998	24.543854	16.769375	16.396184	4.769294	28.063160	21.641740	2.861442	-3.229631	45.898492	31.933529	-8.339446	-9.556915	46.771475	38.200437
-0.445000	-1.782892	-2.032873	94.941017	0.025650	-0.251668	0.052152	88.476938	9.350620	5.561901	13.441129	9.856625	-14.976606	-18.884873	29.725229	7.343160	23.682482	16.306619	17.324831	4.820855	27.395353	21.477707	3.282198	-3.221874	45.247724	31.911397	-6.808682	-9.383080	45.191725	37.286741
-0.435000	-1.782892	-2.032873	94.941017	0.030087	-0.249968	0.056588	88.405661	10.222029	5.972341	12.427889	10.213877	-14.925878	-18.427953	30.817941	7.418560	22.945595	15.903453	18.324966	4.882384	26.767541	21.300676	3.764782	-3.207728	44.676960	31.947044	-5.375133	-9.182683	43.716551	36.442984
-0.425000	-1.782892	-2.032873	94.941017	0.034824	-0.248344	0.061172	88.476890	11.189223	6.340851	11.471757	10.502485	-14.851614	-17.985328	31.777175	7.522943	22.396282	15.603410	19.412609	4.959923	26.194595	21.116832	4.335615	-3.189889	44.212901	32.031042	-4.259661	-9.002012	42.549553	35.821259
-0.415000	-1.782892	-2.032873	94.941017	0.039831	-0.246777	0.065917	88.744776	12.221319	6.685285	10.614207	10.768893	-14.763891	-17.575564	32.612249	7.664138	22.037522	15.411711	20.607568	5.059348	25.665218	20.931605	4.997699	-3.173417	43.849146	32.149778	-3.580551	-8.874571	41.795162	35.509491
-0.405000	-1.782892	-2.032873	94.941017	0.045075	-0.245260	0.070837	89.214738	13.278828	7.041010	9.863777	11.046654	-14.677614	-17.218857	33.369303	7.832923	21.823680	15.298737	21.921747	5.179797	25.154395	20.752724	5.750658	-3.161359	43.545494	32.287916	-3.327361	-8.816902	41.438815	35.508090
-0.395000	-1.782892	-2.032873	94.941017	0.050528	-0.243816	0.075941	89.844839	14.320915	7.450612	9.198639	11.356980	-14.606082	-16.929636	34.101395	8.009627	21.693846	15.221727	23.346233	5.310012	24.641843	20.592148	6.607558	-3.152791	43.242939	32.429738	-3.386346	-8.830412	41.376959	35.742595
-0.385000	-1.782892	-2.032873	94.941017	0.056164	-0.242498	0.081225	90.566513	15.311539	7.953009	8.583252	11.714446	-14.556307	-16.712359	34.839772	8.175042	21.604797	15.150235	24.845904	5.431406	24.126473	20.465775	7.594628	-3.144744	42.890162	32.561523	-3.593970	-8.905699	41.472769	36.100701
-0.375000	-1.782892	-2.032873	94.941017	0.061960	-0.241366	0.086670	91.313471	16.224052	8.575132	7.988803	12.131756	-14.527189	-16.561067	35.579314	8.319607	21.546841	15.081072	26.365540	5.526690	23.630335	20.391512	8.734515	-3.136712	42.468821	32.675758	-3.790279	-9.026582	41.608282	36.474430
-0.365000	-1.782892	-2.032873	94.941017	0.067890	-0.240478	0.092243	92.044487	17.042612	9.328475	7.405947	12.621479	-14.511131	-16.462412	36.280847	8.446358	21.538949	15.036922	27.844155	5.588415	23.190949	20.386850	10.026502	-3.134292	42.002895	32.774860	-3.853853	-9.173161	41.713170	36.791132
-0.355000	-1.782892	-2.032873	94.941017	0.073925	-0.239870	0.097900	92.750953	17.759438	10.210835	6.844233	13.195440	-14.497734	-16.400034	36.885312	8.566885	21.610977	15.052598	29.229947	5.621759	22.846528	20.466633	11.439141	-3.148928	41.546287	32.871056	-3.714410	-9.324527	41.766758	37.026245
-0.345000	-1.782892	-2.032873	94.941017	0.080025	-0.239554	0.103593	93.449773	18.370096	11.210828	6.321160	13.863156	-14.476693	-16.357189	37.332912	8.693296	21.785241	15.158246	30.489421	5.640169	22.622447	20.641056	12.921311	-3.193492	41.157124	32.981620	-3.349435	-9.461449	41.783756	37.199374
-0.335000	-1.782892	-2.032873	94.941017	0.086141	-0.239521	0.109267	94.169592	18.871112	12.311685	5.848925	14.630402	-14.438267	-16.316402	37.581924	8.830899	22.066598	15.367669	31.608961	5.657395	22.526186	20.914043	14.424797	-3.276342	40.874909	33.122238	-2.773172	-9.568774	41.797716	37.359006
-0.325000	-1.782892	-2.032873	94.941017	0.092217	-0.239751	0.114868	94.939092	19.262187	13.492808	5.426500	15.498512	-14.372627	-16.258468	37.622829	8.975322	22.443102	15.675291	32.591395	5.681165	22.551735	21.282969	15.924213	-3.397239	40.712216	33.302368	-2.022135	-9.637484	41.849151	37.561299
-0.315000	-1.782892	-2.032873	94.941017	0.098207	-0.240215	0.120352	95.781502	19.550748	14.730620	5.040539	16.464003	-14.270680	-16.164272	37.482873	9.115147	22.893692	16.061131	33.451268	5.711800	22.687806	21.740699	17.422635	-3.547252	40.661718	33.524741	-1.138165	-9.666564	41.976435	37.848683
-0.305000	-1.782892	-2.032873	94.941017	0.104076	-0.240887	0.125698	96.713901	19.754048	16.000918	4.673894	17.517610	-14.126956	-16.020073	37.217439	9.238274	23.397651	16.500783	34.211035	5.745257	22.922840	22.279405	18.940658	-3.712519	40.710712	33.788414	-0.151796	-9.664105	42.205835	38.235091
